<mxfile host="app.diagrams.net" modified="2023-11-06T14:11:39.290Z" agent="Mozilla/5.0 (Macintosh; Intel Mac OS X 10_15_7) AppleWebKit/537.36 (KHTML, like Gecko) Chrome/119.0.0.0 Safari/537.36" etag="gzZ7Mm7WitqbhJkdBvh4" version="22.0.8" type="github">
  <diagram name="Page-1" id="5ydRssaz3D8Csl5Qwi30">
    <mxGraphModel dx="954" dy="585" grid="0" gridSize="10" guides="1" tooltips="1" connect="1" arrows="1" fold="1" page="1" pageScale="1" pageWidth="850" pageHeight="1100" background="none" math="0" shadow="0">
      <root>
        <mxCell id="0" />
        <mxCell id="1" parent="0" />
        <mxCell id="Q38em9uTAKEnvU3NZGsE-8" value="" style="group" vertex="1" connectable="0" parent="1">
          <mxGeometry x="70" y="50" width="530" height="170" as="geometry" />
        </mxCell>
        <mxCell id="Q38em9uTAKEnvU3NZGsE-4" value="&lt;font style=&quot;font-size: 36px;&quot;&gt;code&lt;/font&gt;" style="text;html=1;strokeColor=none;fillColor=none;align=center;verticalAlign=middle;whiteSpace=wrap;rounded=0;" vertex="1" parent="Q38em9uTAKEnvU3NZGsE-8">
          <mxGeometry x="280" width="250" height="30" as="geometry" />
        </mxCell>
        <mxCell id="Q38em9uTAKEnvU3NZGsE-5" value="&lt;p data-pm-slice=&quot;1 1 []&quot;&gt;&lt;code&gt;&lt;font style=&quot;font-size: 36px;&quot;&gt;hammurabi&lt;/font&gt;&lt;/code&gt;&lt;/p&gt;" style="text;html=1;strokeColor=none;fillColor=none;align=center;verticalAlign=middle;whiteSpace=wrap;rounded=0;" vertex="1" parent="Q38em9uTAKEnvU3NZGsE-8">
          <mxGeometry width="250" height="30" as="geometry" />
        </mxCell>
        <mxCell id="Q38em9uTAKEnvU3NZGsE-6" value="" style="endArrow=classic;html=1;rounded=0;exitX=0.144;exitY=1.2;exitDx=0;exitDy=0;exitPerimeter=0;" edge="1" parent="Q38em9uTAKEnvU3NZGsE-8" source="Q38em9uTAKEnvU3NZGsE-5">
          <mxGeometry width="50" height="50" relative="1" as="geometry">
            <mxPoint x="40" y="50" as="sourcePoint" />
            <mxPoint x="210" y="130" as="targetPoint" />
          </mxGeometry>
        </mxCell>
        <mxCell id="Q38em9uTAKEnvU3NZGsE-21" value="&lt;font style=&quot;font-size: 25px;&quot;&gt;h&lt;/font&gt;" style="edgeLabel;html=1;align=center;verticalAlign=middle;resizable=0;points=[];rotation=35;" vertex="1" connectable="0" parent="Q38em9uTAKEnvU3NZGsE-6">
          <mxGeometry x="0.2801" y="1" relative="1" as="geometry">
            <mxPoint x="-48" y="-5" as="offset" />
          </mxGeometry>
        </mxCell>
        <mxCell id="Q38em9uTAKEnvU3NZGsE-7" value="&lt;font style=&quot;font-size: 36px;&quot;&gt;h&lt;/font&gt;" style="text;html=1;strokeColor=none;fillColor=none;align=center;verticalAlign=middle;whiteSpace=wrap;rounded=0;" vertex="1" parent="Q38em9uTAKEnvU3NZGsE-8">
          <mxGeometry x="200" y="140" width="60" height="30" as="geometry" />
        </mxCell>
        <mxCell id="Q38em9uTAKEnvU3NZGsE-25" value="" style="group" vertex="1" connectable="0" parent="1">
          <mxGeometry x="60" y="260" width="530" height="170" as="geometry" />
        </mxCell>
        <mxCell id="Q38em9uTAKEnvU3NZGsE-9" value="" style="group" vertex="1" connectable="0" parent="Q38em9uTAKEnvU3NZGsE-25">
          <mxGeometry width="530" height="170" as="geometry" />
        </mxCell>
        <mxCell id="Q38em9uTAKEnvU3NZGsE-10" value="&lt;font style=&quot;font-size: 36px;&quot;&gt;code&lt;/font&gt;" style="text;html=1;strokeColor=none;fillColor=none;align=center;verticalAlign=middle;whiteSpace=wrap;rounded=0;" vertex="1" parent="Q38em9uTAKEnvU3NZGsE-9">
          <mxGeometry x="280" width="250" height="30" as="geometry" />
        </mxCell>
        <mxCell id="Q38em9uTAKEnvU3NZGsE-11" value="&lt;p data-pm-slice=&quot;1 1 []&quot;&gt;&lt;code&gt;&lt;font style=&quot;font-size: 36px;&quot;&gt;hammurabi&lt;/font&gt;&lt;/code&gt;&lt;/p&gt;" style="text;html=1;strokeColor=none;fillColor=none;align=center;verticalAlign=middle;whiteSpace=wrap;rounded=0;" vertex="1" parent="Q38em9uTAKEnvU3NZGsE-9">
          <mxGeometry width="250" height="30" as="geometry" />
        </mxCell>
        <mxCell id="Q38em9uTAKEnvU3NZGsE-12" value="" style="endArrow=classic;html=1;rounded=0;" edge="1" parent="Q38em9uTAKEnvU3NZGsE-9">
          <mxGeometry width="50" height="50" relative="1" as="geometry">
            <mxPoint x="40" y="50" as="sourcePoint" />
            <mxPoint x="210" y="130" as="targetPoint" />
          </mxGeometry>
        </mxCell>
        <mxCell id="Q38em9uTAKEnvU3NZGsE-13" value="&lt;font style=&quot;font-size: 36px;&quot;&gt;hc&lt;/font&gt;" style="text;html=1;strokeColor=none;fillColor=none;align=center;verticalAlign=middle;whiteSpace=wrap;rounded=0;" vertex="1" parent="Q38em9uTAKEnvU3NZGsE-9">
          <mxGeometry x="200" y="140" width="60" height="30" as="geometry" />
        </mxCell>
        <mxCell id="Q38em9uTAKEnvU3NZGsE-20" value="" style="endArrow=classic;html=1;rounded=0;" edge="1" parent="Q38em9uTAKEnvU3NZGsE-25">
          <mxGeometry width="50" height="50" relative="1" as="geometry">
            <mxPoint x="380" y="50" as="sourcePoint" />
            <mxPoint x="250" y="130" as="targetPoint" />
          </mxGeometry>
        </mxCell>
        <mxCell id="Q38em9uTAKEnvU3NZGsE-24" value="&lt;font style=&quot;font-size: 25px;&quot;&gt;c&lt;/font&gt;" style="text;html=1;align=center;verticalAlign=middle;resizable=0;points=[];autosize=1;strokeColor=none;fillColor=none;rotation=-45;" vertex="1" parent="Q38em9uTAKEnvU3NZGsE-25">
          <mxGeometry x="330" y="83" width="40" height="40" as="geometry" />
        </mxCell>
        <mxCell id="Q38em9uTAKEnvU3NZGsE-34" value="" style="group" vertex="1" connectable="0" parent="1">
          <mxGeometry x="30" y="470" width="530" height="170" as="geometry" />
        </mxCell>
        <mxCell id="Q38em9uTAKEnvU3NZGsE-40" value="" style="endArrow=classic;html=1;rounded=0;" edge="1" parent="Q38em9uTAKEnvU3NZGsE-34">
          <mxGeometry width="50" height="50" relative="1" as="geometry">
            <mxPoint x="380" y="50" as="sourcePoint" />
            <mxPoint x="260" y="140" as="targetPoint" />
          </mxGeometry>
        </mxCell>
        <mxCell id="Q38em9uTAKEnvU3NZGsE-35" value="" style="group" vertex="1" connectable="0" parent="1">
          <mxGeometry x="40" y="480" width="530" height="170" as="geometry" />
        </mxCell>
        <mxCell id="Q38em9uTAKEnvU3NZGsE-36" value="&lt;font style=&quot;font-size: 36px;&quot;&gt;code&lt;/font&gt;" style="text;html=1;strokeColor=none;fillColor=none;align=center;verticalAlign=middle;whiteSpace=wrap;rounded=0;" vertex="1" parent="Q38em9uTAKEnvU3NZGsE-35">
          <mxGeometry x="280" width="250" height="30" as="geometry" />
        </mxCell>
        <mxCell id="Q38em9uTAKEnvU3NZGsE-37" value="&lt;p data-pm-slice=&quot;1 1 []&quot;&gt;&lt;code&gt;&lt;font style=&quot;font-size: 36px;&quot;&gt;hammurabi&lt;/font&gt;&lt;/code&gt;&lt;/p&gt;" style="text;html=1;strokeColor=none;fillColor=none;align=center;verticalAlign=middle;whiteSpace=wrap;rounded=0;" vertex="1" parent="Q38em9uTAKEnvU3NZGsE-35">
          <mxGeometry width="250" height="30" as="geometry" />
        </mxCell>
        <mxCell id="Q38em9uTAKEnvU3NZGsE-38" value="" style="endArrow=classic;html=1;rounded=0;" edge="1" parent="Q38em9uTAKEnvU3NZGsE-35">
          <mxGeometry width="50" height="50" relative="1" as="geometry">
            <mxPoint x="70" y="50" as="sourcePoint" />
            <mxPoint x="210" y="130" as="targetPoint" />
          </mxGeometry>
        </mxCell>
        <mxCell id="Q38em9uTAKEnvU3NZGsE-39" value="&lt;font style=&quot;font-size: 36px;&quot;&gt;hca&lt;/font&gt;" style="text;html=1;strokeColor=none;fillColor=none;align=center;verticalAlign=middle;whiteSpace=wrap;rounded=0;" vertex="1" parent="Q38em9uTAKEnvU3NZGsE-35">
          <mxGeometry x="200" y="140" width="60" height="30" as="geometry" />
        </mxCell>
        <mxCell id="Q38em9uTAKEnvU3NZGsE-42" value="&lt;font style=&quot;font-size: 25px;&quot;&gt;a&lt;/font&gt;" style="text;html=1;align=center;verticalAlign=middle;resizable=0;points=[];autosize=1;strokeColor=none;fillColor=none;rotation=35;" vertex="1" parent="1">
          <mxGeometry x="140" y="553" width="40" height="40" as="geometry" />
        </mxCell>
        <mxCell id="Q38em9uTAKEnvU3NZGsE-44" value="" style="group" vertex="1" connectable="0" parent="1">
          <mxGeometry x="10" y="710" width="530" height="170" as="geometry" />
        </mxCell>
        <mxCell id="Q38em9uTAKEnvU3NZGsE-45" value="&lt;font style=&quot;font-size: 36px;&quot;&gt;code&lt;/font&gt;" style="text;html=1;strokeColor=none;fillColor=none;align=center;verticalAlign=middle;whiteSpace=wrap;rounded=0;" vertex="1" parent="Q38em9uTAKEnvU3NZGsE-44">
          <mxGeometry x="280" width="250" height="30" as="geometry" />
        </mxCell>
        <mxCell id="Q38em9uTAKEnvU3NZGsE-46" value="&lt;p data-pm-slice=&quot;1 1 []&quot;&gt;&lt;code&gt;&lt;font style=&quot;font-size: 36px;&quot;&gt;hammurabi&lt;/font&gt;&lt;/code&gt;&lt;/p&gt;" style="text;html=1;strokeColor=none;fillColor=none;align=center;verticalAlign=middle;whiteSpace=wrap;rounded=0;" vertex="1" parent="Q38em9uTAKEnvU3NZGsE-44">
          <mxGeometry width="250" height="30" as="geometry" />
        </mxCell>
        <mxCell id="Q38em9uTAKEnvU3NZGsE-47" value="" style="endArrow=classic;html=1;rounded=0;" edge="1" parent="Q38em9uTAKEnvU3NZGsE-44">
          <mxGeometry width="50" height="50" relative="1" as="geometry">
            <mxPoint x="40" y="50" as="sourcePoint" />
            <mxPoint x="210" y="130" as="targetPoint" />
          </mxGeometry>
        </mxCell>
        <mxCell id="Q38em9uTAKEnvU3NZGsE-48" value="&lt;font style=&quot;font-size: 36px;&quot;&gt;hcao&lt;/font&gt;" style="text;html=1;strokeColor=none;fillColor=none;align=center;verticalAlign=middle;whiteSpace=wrap;rounded=0;" vertex="1" parent="Q38em9uTAKEnvU3NZGsE-44">
          <mxGeometry x="200" y="140" width="60" height="30" as="geometry" />
        </mxCell>
        <mxCell id="Q38em9uTAKEnvU3NZGsE-49" value="" style="endArrow=classic;html=1;rounded=0;" edge="1" parent="Q38em9uTAKEnvU3NZGsE-44">
          <mxGeometry width="50" height="50" relative="1" as="geometry">
            <mxPoint x="380" y="45" as="sourcePoint" />
            <mxPoint x="250" y="125" as="targetPoint" />
          </mxGeometry>
        </mxCell>
        <mxCell id="Q38em9uTAKEnvU3NZGsE-50" value="&lt;font style=&quot;font-size: 25px;&quot;&gt;o&lt;/font&gt;" style="text;html=1;align=center;verticalAlign=middle;resizable=0;points=[];autosize=1;strokeColor=none;fillColor=none;rotation=-45;" vertex="1" parent="Q38em9uTAKEnvU3NZGsE-44">
          <mxGeometry x="320" y="70" width="40" height="40" as="geometry" />
        </mxCell>
      </root>
    </mxGraphModel>
  </diagram>
</mxfile>
